<svg xmlns="http://www.w3.org/2000/svg" width="76.666" height="50.493" viewBox="0 0 76.666 50.493">
  <g id="Green_Hat" data-name="Green Hat" transform="translate(40.155 1.499)">
    <g id="Hat" transform="translate(-40.155 -1.499)">
      <path id="Path_153" data-name="Path 153" d="M361.869,257.616A58.619,58.619,0,0,1,338.1,252.41a2.51,2.51,0,0,1-1.488-2.3V229.669a2.528,2.528,0,0,1,2.526-2.525H384.6a2.528,2.528,0,0,1,2.525,2.525v20.439a2.51,2.51,0,0,1-1.488,2.3h0A58.619,58.619,0,0,1,361.869,257.616Z" transform="translate(-323.289 -207.123)" fill="#437257"/>
      <path id="Path_154" data-name="Path 154" d="M351.445,225.406a2.529,2.529,0,0,1-.981-.2L314.416,210a2.525,2.525,0,0,1,.086-4.688l36.049-13.676a2.517,2.517,0,0,1,1.8,0l35.566,13.676a2.526,2.526,0,0,1,.086,4.679L352.439,225.2A2.528,2.528,0,0,1,351.445,225.406Z" transform="translate(-312.872 -191.471)" fill="#67a07e"/>
      <circle id="Ellipse_11" data-name="Ellipse 11" cx="3.367" cy="3.367" r="3.367" transform="translate(14.167 39.943)" fill="#3f3d56"/>
      <path id="Path_155" data-name="Path 155" d="M388.529,219.9l-35.566,15.209a2.245,2.245,0,0,1-1.755,0L315.159,219.9a2.2,2.2,0,0,1-1.073-.943,2.243,2.243,0,0,0,1.073,3.188l36.049,15.208a2.245,2.245,0,0,0,1.755,0l35.566-15.209a2.243,2.243,0,0,0,1.063-3.184A2.2,2.2,0,0,1,388.529,219.9Z" transform="translate(-313.273 -203.532)" opacity="0.2"/>
      <path id="Path_156" data-name="Path 156" d="M344.18,247.349a.561.561,0,0,0,.561-.561V228.009l18.51-6.743a.561.561,0,1,0,.017-1.122l-18.51,6.743a1.1,1.1,0,0,0-.8.323,1.114,1.114,0,0,0-.335.8v18.779A.561.561,0,0,0,344.18,247.349Z" transform="translate(-326.363 -204.052)" fill="#3f3d56"/>
    </g>
  </g>
</svg>
